<svg width="1580" height="418" viewBox="0 0 1580 418" fill="none" xmlns="http://www.w3.org/2000/svg">
<path d="M311.249 240.511V357.551L207.071 418L101.606 357.551V240.511L0 181.348V60.4492L105.465 0L205.785 57.8769L307.391 0L412.855 60.4492V181.348L311.249 240.511Z" fill="#1548D7"/>
<path d="M313.823 185.206V198.068L370.414 165.914L358.839 158.197L313.823 185.206ZM213.503 388.418V401.28L294.531 354.978L282.956 347.261L213.503 388.418ZM213.503 360.123V372.984L270.094 340.831L258.519 333.114L213.503 360.123ZM111.897 213.501V226.363L192.925 180.061L181.35 172.344L111.897 213.501ZM111.897 185.206V198.068L168.488 165.914L156.913 158.197L111.897 185.206ZM313.823 213.501V226.363L394.851 180.061L383.276 172.344L313.823 213.501Z" fill="#70CFC6"/>
<path d="M118.327 237.938L129.902 244.369L218.647 194.209L207.072 186.492L118.327 237.938ZM91.3179 105.465L105.466 113.181L192.924 63.0215L178.776 55.3045L91.3179 105.465ZM66.8809 91.3168L78.4563 97.7476L165.915 47.5876L154.339 39.8707L66.8809 91.3168ZM42.444 77.1692L54.0194 83.5999L141.478 33.4399L129.902 25.723L42.444 77.1692ZM16.7209 63.0215L28.2963 69.4522L117.041 19.2922L105.466 11.5753L16.7209 63.0215ZM218.647 63.0215L231.509 69.4522L318.967 19.2922L307.392 11.5753L218.647 63.0215ZM244.37 77.1692L255.946 83.5999L343.404 33.4399L331.829 25.723L244.37 77.1692ZM268.807 91.3168L280.382 97.7476L367.841 47.5876L356.266 39.8707L268.807 91.3168ZM293.244 105.465L307.392 113.181L394.85 63.0215L380.702 55.3045L293.244 105.465ZM192.924 280.381L207.072 288.098L294.53 237.938L280.382 230.221L192.924 280.381ZM168.487 266.234L180.062 272.665L267.521 222.505L255.946 214.788L168.487 266.234ZM144.05 252.086L155.626 258.517L243.084 208.357L231.509 200.64L144.05 252.086Z" fill="#FDB396"/>
<path d="M276.524 329.255V263.662L264.949 270.092V322.825L276.524 329.255ZM200.641 401.28V299.674L187.78 291.957V394.849L200.641 401.28ZM300.961 226.363V124.757L288.099 117.04V219.932L300.961 226.363ZM275.238 110.609L263.663 102.892V204.499L275.238 212.215V110.609ZM249.515 95.1755L237.939 88.7447V190.351L249.515 198.068V95.1755ZM225.078 81.0278L212.216 74.597V176.203L225.078 183.92V81.0278ZM99.0349 226.363V124.757L86.1734 117.04V219.932L99.0349 226.363ZM72.0257 110.609L60.4503 102.892V204.499L72.0257 212.215V110.609ZM47.5887 95.1755L36.0134 88.7447V190.351L47.5887 198.068V95.1755ZM23.1518 81.0278L10.2903 74.597V176.203L23.1518 183.92V81.0278ZM124.758 255.945L111.896 249.514V351.12L124.758 358.837V255.945ZM149.195 270.092L137.62 263.662V365.268L149.195 372.985V270.092ZM173.632 285.526L162.056 277.809V379.415L173.632 387.132V285.526ZM199.355 168.486V74.597L187.78 81.0278V162.056L199.355 168.486ZM174.918 154.339V88.7447L163.343 95.1755V147.908L174.918 154.339ZM401.281 168.486V74.597L389.706 81.0278V162.056L401.281 168.486ZM376.844 154.339V88.7447L365.269 95.1755V147.908L376.844 154.339ZM300.961 343.403V249.514L289.386 255.945V336.972L300.961 343.403Z" fill="#FE79BB"/>
<path d="M680.375 204.498C699.668 212.215 709.957 227.649 709.957 250.8C709.957 259.803 708.671 268.806 704.812 276.523C700.954 285.526 695.809 291.957 689.378 298.388C682.948 304.818 673.945 308.677 664.942 312.535C654.652 315.108 643.077 316.394 632.788 316.394H550.474V100.32H626.357C637.932 100.32 649.508 101.606 661.083 105.465C670.086 106.751 679.089 110.609 685.52 117.04C693.237 122.185 697.095 128.615 700.954 136.332C703.526 144.049 704.812 153.052 704.812 160.769C704.812 165.914 704.812 171.058 703.526 176.203C700.954 181.348 699.668 186.492 695.809 190.351C693.237 195.495 688.092 199.354 684.234 201.926C682.948 203.212 681.662 203.212 680.375 204.498ZM837.286 237.938V316.394H784.554V100.32H851.434C864.295 100.32 877.157 101.606 888.732 105.465C897.735 108.037 906.739 111.895 914.455 118.326C920.886 124.757 926.031 131.188 929.889 140.191C932.462 147.908 935.034 156.911 935.034 165.914C935.034 173.631 933.748 180.062 931.175 186.492C929.889 192.923 926.031 199.354 922.172 204.498C918.314 210.929 913.169 214.788 908.025 219.932C905.452 221.218 901.594 223.791 899.022 225.077C901.594 227.649 904.166 230.222 905.452 232.794L956.898 316.394H909.311C901.594 316.394 893.877 312.535 890.019 306.105L852.72 241.797C851.434 240.511 850.148 239.225 850.148 239.225C848.862 237.938 846.289 237.938 845.003 237.938H837.286ZM1075.22 316.394H1022.49V100.32H1075.22V316.394ZM1199.98 205.785L1140.82 100.32H1192.26C1194.84 100.32 1197.41 101.606 1201.27 102.892C1202.55 104.178 1205.13 105.465 1206.41 108.037L1237.28 168.486L1266.86 109.323C1268.15 106.751 1270.72 104.178 1272.01 102.892C1274.58 101.606 1277.15 100.32 1281.01 100.32H1329.88L1269.43 204.498L1329.88 316.394H1279.72C1275.86 316.394 1272.01 315.108 1269.43 312.535C1268.15 311.249 1265.58 309.963 1264.29 307.391L1232.14 244.369L1201.27 307.391C1199.98 308.677 1198.7 311.249 1197.41 312.535C1194.84 315.108 1190.98 316.394 1187.12 316.394H1139.53L1199.98 205.785ZM1579.4 208.357C1579.4 223.791 1576.82 237.938 1571.68 252.086C1567.82 264.948 1560.1 277.809 1551.1 286.812C1542.1 297.102 1530.52 304.818 1517.66 309.963C1503.51 316.394 1489.37 318.966 1475.22 318.966C1459.78 318.966 1445.64 316.394 1431.49 309.963C1418.63 304.818 1408.34 297.102 1398.05 286.812C1389.05 277.809 1381.33 264.948 1377.47 252.086C1372.33 237.938 1369.75 223.791 1369.75 208.357C1369.75 194.209 1372.33 178.775 1377.47 164.628C1381.33 151.766 1389.05 140.191 1398.05 129.902C1408.34 119.612 1418.63 111.895 1431.49 106.751C1445.64 101.606 1459.78 99.0338 1475.22 99.0338C1489.37 99.0338 1503.51 101.606 1517.66 106.751C1530.52 111.895 1542.1 119.612 1551.1 129.902C1560.1 140.191 1567.82 151.766 1571.68 164.628C1576.82 178.775 1579.4 194.209 1579.4 208.357ZM603.206 227.649V272.665H631.502C636.646 272.665 641.791 272.665 645.649 271.378C648.222 270.092 650.794 268.806 653.366 266.234C654.652 263.662 655.938 262.375 657.225 258.517C658.511 255.945 658.511 252.086 658.511 249.514C658.511 245.655 658.511 243.083 657.225 240.511C655.938 237.938 654.652 235.366 653.366 234.08C650.794 231.508 648.222 230.222 645.649 230.222C640.505 228.935 635.36 227.649 631.502 227.649H603.206ZM603.206 187.778H623.785C631.502 187.778 640.505 187.778 645.649 182.634C652.08 178.775 653.366 172.345 653.366 165.914C653.366 160.769 652.08 153.052 646.935 149.194C641.791 144.049 632.788 144.049 626.357 144.049H603.206V187.778ZM837.286 198.068H851.434C856.579 198.068 861.723 196.782 865.582 195.495C869.44 194.209 873.299 191.637 875.871 189.065C878.443 186.492 879.729 183.92 881.015 181.348C882.302 177.489 883.588 172.345 883.588 168.486C883.588 162.055 881.015 155.625 875.871 150.48C869.44 145.335 859.151 144.049 851.434 144.049H837.286V198.068ZM1526.66 208.357C1526.66 199.354 1525.38 190.351 1522.81 181.348C1520.23 173.631 1517.66 167.2 1512.52 160.769C1507.37 155.625 1502.23 151.766 1495.8 149.194C1489.37 146.622 1481.65 145.335 1475.22 145.335C1467.5 145.335 1459.78 146.622 1453.35 149.194C1446.92 151.766 1441.78 155.625 1436.63 160.769C1431.49 167.2 1428.92 173.631 1426.34 181.348C1423.77 190.351 1422.49 199.354 1422.49 208.357C1422.49 217.36 1423.77 227.649 1426.34 236.652C1428.92 243.083 1431.49 250.8 1436.63 255.945C1441.78 261.089 1446.92 264.948 1453.35 267.52C1459.78 271.378 1467.5 272.665 1475.22 272.665C1481.65 272.665 1489.37 271.378 1495.8 267.52C1502.23 264.948 1507.37 261.089 1512.52 255.945C1517.66 250.8 1520.23 243.083 1522.81 236.652C1525.38 227.649 1526.66 217.36 1526.66 208.357Z" fill="#1548D7"/>
<path d="M680.375 204.498C699.668 212.215 709.957 227.649 709.957 250.8C709.957 259.803 708.671 268.806 704.812 276.523C700.954 285.526 695.809 291.957 689.378 298.388C682.948 304.818 673.945 308.677 664.942 312.535C654.652 315.108 643.077 316.394 632.788 316.394H550.474V100.32H626.357C637.932 100.32 649.508 101.606 661.083 105.465C670.086 106.751 679.089 110.609 685.52 117.04C693.237 122.185 697.095 128.615 700.954 136.332C703.526 144.049 704.812 153.052 704.812 160.769C704.812 165.914 704.812 171.058 703.526 176.203C700.954 181.348 699.668 186.492 695.809 190.351C693.237 195.495 688.092 199.354 684.234 201.926C682.948 203.212 681.662 203.212 680.375 204.498ZM837.286 237.938V316.394H784.554V100.32H851.434C864.295 100.32 877.157 101.606 888.732 105.465C897.735 108.037 906.739 111.895 914.455 118.326C920.886 124.757 926.031 131.188 929.889 140.191C932.462 147.908 935.034 156.911 935.034 165.914C935.034 173.631 933.748 180.062 931.175 186.492C929.889 192.923 926.031 199.354 922.172 204.498C918.314 210.929 913.169 214.788 908.025 219.932C905.452 221.218 901.594 223.791 899.022 225.077C901.594 227.649 904.166 230.222 905.452 232.794L956.898 316.394H909.311C901.594 316.394 893.877 312.535 890.019 306.105L852.72 241.797C851.434 240.511 850.148 239.225 850.148 239.225C848.862 237.938 846.289 237.938 845.003 237.938H837.286ZM1075.22 316.394H1022.49V100.32H1075.22V316.394ZM1199.98 205.785L1140.82 100.32H1192.26C1194.84 100.32 1197.41 101.606 1201.27 102.892C1202.55 104.178 1205.13 105.465 1206.41 108.037L1237.28 168.486L1266.86 109.323C1268.15 106.751 1270.72 104.178 1272.01 102.892C1274.58 101.606 1277.15 100.32 1281.01 100.32H1329.88L1269.43 204.498L1329.88 316.394H1279.72C1275.86 316.394 1272.01 315.108 1269.43 312.535C1268.15 311.249 1265.58 309.963 1264.29 307.391L1232.14 244.369L1201.27 307.391C1199.98 308.677 1198.7 311.249 1197.41 312.535C1194.84 315.108 1190.98 316.394 1187.12 316.394H1139.53L1199.98 205.785ZM1579.4 208.357C1579.4 223.791 1576.82 237.938 1571.68 252.086C1567.82 264.948 1560.1 277.809 1551.1 286.812C1542.1 297.102 1530.52 304.818 1517.66 309.963C1503.51 316.394 1489.37 318.966 1475.22 318.966C1459.78 318.966 1445.64 316.394 1431.49 309.963C1418.63 304.818 1408.34 297.102 1398.05 286.812C1389.05 277.809 1381.33 264.948 1377.47 252.086C1372.33 237.938 1369.75 223.791 1369.75 208.357C1369.75 194.209 1372.33 178.775 1377.47 164.628C1381.33 151.766 1389.05 140.191 1398.05 129.902C1408.34 119.612 1418.63 111.895 1431.49 106.751C1445.64 101.606 1459.78 99.0338 1475.22 99.0338C1489.37 99.0338 1503.51 101.606 1517.66 106.751C1530.52 111.895 1542.1 119.612 1551.1 129.902C1560.1 140.191 1567.82 151.766 1571.68 164.628C1576.82 178.775 1579.4 194.209 1579.4 208.357ZM603.206 227.649V272.665H631.502C636.646 272.665 641.791 272.665 645.649 271.378C648.222 270.092 650.794 268.806 653.366 266.234C654.652 263.662 655.938 262.375 657.225 258.517C658.511 255.945 658.511 252.086 658.511 249.514C658.511 245.655 658.511 243.083 657.225 240.511C655.938 237.938 654.652 235.366 653.366 234.08C650.794 231.508 648.222 230.222 645.649 230.222C640.505 228.935 635.36 227.649 631.502 227.649H603.206ZM603.206 187.778H623.785C631.502 187.778 640.505 187.778 645.649 182.634C652.08 178.775 653.366 172.345 653.366 165.914C653.366 160.769 652.08 153.052 646.935 149.194C641.791 144.049 632.788 144.049 626.357 144.049H603.206V187.778ZM837.286 198.068H851.434C856.579 198.068 861.723 196.782 865.582 195.495C869.44 194.209 873.299 191.637 875.871 189.065C878.443 186.492 879.729 183.92 881.015 181.348C882.302 177.489 883.588 172.345 883.588 168.486C883.588 162.055 881.015 155.625 875.871 150.48C869.44 145.335 859.151 144.049 851.434 144.049H837.286V198.068ZM1526.66 208.357C1526.66 199.354 1525.38 190.351 1522.81 181.348C1520.23 173.631 1517.66 167.2 1512.52 160.769C1507.37 155.625 1502.23 151.766 1495.8 149.194C1489.37 146.622 1481.65 145.335 1475.22 145.335C1467.5 145.335 1459.78 146.622 1453.35 149.194C1446.92 151.766 1441.78 155.625 1436.63 160.769C1431.49 167.2 1428.92 173.631 1426.34 181.348C1423.77 190.351 1422.49 199.354 1422.49 208.357C1422.49 217.36 1423.77 227.649 1426.34 236.652C1428.92 243.083 1431.49 250.8 1436.63 255.945C1441.78 261.089 1446.92 264.948 1453.35 267.52C1459.78 271.378 1467.5 272.665 1475.22 272.665C1481.65 272.665 1489.37 271.378 1495.8 267.52C1502.23 264.948 1507.37 261.089 1512.52 255.945C1517.66 250.8 1520.23 243.083 1522.81 236.652C1525.38 227.649 1526.66 217.36 1526.66 208.357Z" fill="white"/>
</svg>
