<svg width="127" height="19" viewBox="0 0 127 19" fill="none" xmlns="http://www.w3.org/2000/svg">
<path d="M14.3825 10.9213V16.2323L9.53785 19L4.69323 16.2323V10.9213L0 8.30315V2.76772L4.84462 0L9.46215 2.61811L14.1554 0L19 2.76772V8.30315L14.3825 10.9213Z" fill="black"/>
<path fill-rule="evenodd" clip-rule="evenodd" d="M14.4581 8.37795V9.05118L17.1075 7.55512L16.5019 7.1811L14.4581 8.37795ZM12.7171 14.9606V11.9685L12.1872 12.2677V14.6614L12.7171 14.9606ZM9.23501 18.252V13.6142L8.62943 13.315V17.9528L9.23501 18.252ZM13.8525 10.3228V5.68504L13.247 5.31103V9.94882L13.8525 10.3228ZM12.6414 5.01181L12.1115 4.7126V9.3504L12.6414 9.64961V5.01181ZM11.5059 4.33858L10.976 4.03937V8.67717L11.5059 8.97638V4.33858ZM10.3705 3.74016L9.76489 3.36614V8.00394L10.3705 8.30315V3.74016ZM4.54178 10.3228V5.68504L3.9362 5.31103V9.94882L4.54178 10.3228ZM3.33063 5.01181L2.80075 4.7126V9.3504L3.33063 9.64961V5.01181ZM2.19517 4.33858L1.66529 4.03937V8.67717L2.19517 8.97638V4.33858ZM1.05971 3.74016L0.454132 3.36614V8.00394L1.05971 8.30315V3.74016ZM5.75294 11.6693L5.14736 11.2953V15.9331L5.75294 16.3071V11.6693ZM6.88839 12.3425L6.35851 11.9685V16.6063L6.88839 16.9803V12.3425ZM8.02385 12.9409L7.49397 12.6417V17.2795L8.02385 17.5787V12.9409ZM9.23501 7.62992V3.36614L8.62943 3.66536V7.33071L9.23501 7.62992ZM8.02385 7.0315V4.03937L7.49397 4.33858V6.73229L8.02385 7.0315ZM18.5458 7.62992V3.36614L17.9402 3.66536V7.33071L18.5458 7.62992ZM17.4103 7.0315V4.03937L16.8047 4.33858V6.73229L17.4103 7.0315ZM13.8525 15.6339V11.2953L13.3227 11.6693V15.3346L13.8525 15.6339ZM5.45015 10.8465L6.05573 11.1457L10.0677 8.82677L9.5378 8.52756L5.45015 10.8465ZM4.23899 4.7874L4.84457 5.16142L8.93222 2.84252L8.25094 2.46851L4.23899 4.7874ZM3.10353 4.18898L3.63341 4.48819L7.64537 2.16929L7.11549 1.87008L3.10353 4.18898ZM1.96808 3.51575L2.49796 3.81496L6.50991 1.49607L5.98003 1.19685L1.96808 3.51575ZM0.756921 2.84252L1.3625 3.14173L5.37445 0.822837L4.84457 0.523624L0.756921 2.84252ZM10.0677 2.84252L10.6733 3.14173L14.6852 0.822837L14.1553 0.523624L10.0677 2.84252ZM11.2788 3.51575L11.8087 3.81496L15.8207 1.49607L15.2908 1.19685L11.2788 3.51575ZM12.4143 4.18898L12.9442 4.48819L16.9561 2.16929L16.4262 1.87008L12.4143 4.18898ZM13.5497 4.7874L14.1553 5.16142L18.243 2.84252L17.5617 2.46851L13.5497 4.7874ZM8.85652 12.7913L9.5378 13.1654L13.5497 10.8465L12.9442 10.4724L8.85652 12.7913ZM7.72106 12.1181L8.32664 12.4173L12.3386 10.0984L11.8087 9.79921L7.72106 12.1181ZM6.58561 11.4449L7.19118 11.8189L11.2031 9.4252L10.6733 9.12599L6.58561 11.4449ZM9.84059 17.6535V18.252L13.5497 16.1575L13.0199 15.8583L9.84059 17.6535ZM9.84059 16.3819V16.9803L12.4143 15.4843L11.8844 15.185L9.84059 16.3819ZM5.14736 9.72441V10.3228L8.93222 8.15355L8.32664 7.85433L5.14736 9.72441ZM5.14736 8.37795V9.05118L7.79676 7.55512L7.19118 7.1811L5.14736 8.37795ZM14.4581 9.72441V10.3228L18.243 8.15355L17.6374 7.85433L14.4581 9.72441Z" fill="white"/>
<path d="M33.5839 9.14395C34.6399 9.62394 35.3119 10.4879 35.3119 11.8319C35.3119 12.4079 35.2159 12.8879 35.0239 13.3679C34.8319 13.8479 34.5439 14.3279 34.1599 14.6159C33.6799 14.9999 33.1999 15.2879 32.7199 15.4799C32.0479 15.6719 31.376 15.7679 30.8 15.7679H26V3.096H30.416C31.088 3.096 31.76 3.192 32.4319 3.384C33.0079 3.48 33.4879 3.76799 33.8719 4.05599C34.2559 4.34399 34.6399 4.72799 34.7359 5.20798C34.9279 5.68798 35.0239 6.16797 35.0239 6.64797C35.0239 6.93597 35.0239 7.22396 34.9279 7.51196C34.8319 7.79996 34.6399 8.08796 34.4479 8.37595C34.2559 8.66395 34.0639 8.85595 33.7759 9.04795C33.7759 9.14395 33.6799 9.14395 33.5839 9.14395ZM42.7039 11.1599V15.7679H39.6319V3.096H43.5678C44.3358 3.096 45.0078 3.192 45.7758 3.384C46.2558 3.576 46.8318 3.76799 47.2158 4.15199C47.6958 4.53599 47.9838 4.91998 48.1758 5.39998C48.3678 5.87998 48.4638 6.45597 48.4638 6.93597C48.4638 7.31996 48.3678 7.79996 48.2718 8.18396C48.1758 8.56795 47.9838 8.85595 47.6958 9.23995C47.5038 9.52794 47.2158 9.81594 46.9278 10.0079C46.7358 10.1999 46.5438 10.2959 46.3518 10.3919C46.5438 10.4879 46.6398 10.6799 46.7358 10.8719L49.7118 15.7679H47.0238C46.4478 15.7679 46.0638 15.4799 45.7758 15.0959L43.6638 11.3519C43.5678 11.3519 43.5678 11.2559 43.4718 11.1599C43.3759 11.1599 43.2799 11.1599 43.1839 11.1599H42.7039ZM56.6237 15.7679H53.5518V3.096H56.6237V15.7679ZM63.9197 9.23995L60.4637 3.096H63.4397C63.6317 3.096 63.8237 3.096 64.0157 3.192C64.1117 3.288 64.2077 3.384 64.3037 3.576L66.1277 7.12796L67.8556 3.576C67.9516 3.48 68.0476 3.384 68.1436 3.288C68.3356 3.192 68.4316 3.096 68.6236 3.096H71.5036L67.9516 9.14395L71.5036 15.7679H68.6236C68.4316 15.7679 68.1436 15.6719 68.0476 15.4799C67.8556 15.3839 67.7596 15.2879 67.6636 15.1919L65.8397 11.4479L64.0157 15.1919C63.9197 15.2879 63.8237 15.3839 63.7277 15.4799C63.6317 15.6719 63.4397 15.7679 63.1517 15.7679H60.3677L63.9197 9.23995ZM86.0955 9.43194C86.0955 10.2959 85.9995 11.1599 85.7115 11.9279C85.4235 12.6959 84.9435 13.4639 84.4635 14.0399C83.8875 14.6159 83.2155 15.0959 82.4475 15.3839C81.6795 15.6719 80.8155 15.8639 79.9515 15.8639C79.0875 15.8639 78.2236 15.6719 77.4556 15.3839C76.6876 15.0959 76.1116 14.6159 75.5356 14.0399C74.9596 13.4639 74.5756 12.6959 74.2876 11.9279C73.9996 11.1599 73.8076 10.2959 73.8076 9.43194C73.8076 8.56795 73.9996 7.70396 74.2876 6.83997C74.5756 6.07197 74.9596 5.39998 75.5356 4.82398C76.1116 4.24799 76.6876 3.76799 77.4556 3.48C78.2236 3.096 79.0875 3 79.9515 3C80.8155 3 81.6795 3.096 82.4475 3.48C83.2155 3.76799 83.8875 4.24799 84.4635 4.82398C84.9435 5.39998 85.4235 6.16797 85.7115 6.83997C85.9995 7.70396 86.0955 8.56795 86.0955 9.43194ZM29.072 10.5839V13.1759H30.704C30.992 13.1759 31.28 13.1759 31.568 13.0799C31.76 12.9839 31.8559 12.8879 32.0479 12.7919C32.1439 12.6959 32.2399 12.5039 32.2399 12.4079C32.3359 12.2159 32.3359 12.0239 32.3359 11.8319C32.3359 11.6399 32.3359 11.4479 32.2399 11.2559C32.1439 11.1599 32.1439 10.9679 31.9519 10.8719C31.8559 10.7759 31.664 10.6799 31.568 10.6799C31.28 10.5839 30.992 10.5839 30.704 10.5839H29.072ZM29.072 8.18396H30.224C30.704 8.18396 31.184 8.18396 31.568 7.89596C31.9519 7.70396 31.9519 7.31996 31.9519 6.93597C31.9519 6.64797 31.9519 6.16797 31.664 5.97597C31.376 5.68798 30.8 5.59198 30.416 5.59198H29.072V8.18396ZM42.7039 8.75995H43.5678C43.8558 8.75995 44.1438 8.75995 44.4318 8.66395C44.6238 8.56795 44.8158 8.47195 45.0078 8.27995C45.1038 8.18396 45.1998 7.99196 45.2958 7.79996C45.3918 7.60796 45.3918 7.31996 45.3918 7.12796C45.3918 6.64797 45.2958 6.26397 45.0078 5.97597C44.6238 5.68798 44.0478 5.59198 43.5678 5.59198H42.7039V8.75995ZM83.0235 9.43194C83.0235 8.85595 82.9275 8.37595 82.7355 7.79996C82.6395 7.41596 82.4475 7.03197 82.1595 6.64797C81.8715 6.35997 81.5835 6.07197 81.1995 5.97597C80.8155 5.78398 80.4315 5.68798 79.9515 5.68798C79.5675 5.68798 79.0875 5.78398 78.7035 5.97597C78.3195 6.07197 78.0316 6.35997 77.7436 6.64797C77.4556 7.03197 77.2636 7.41596 77.1676 7.79996C76.9756 8.37595 76.9756 8.85595 76.9756 9.43194C76.9756 10.0079 76.9756 10.4879 77.1676 11.0639C77.2636 11.4479 77.4556 11.8319 77.7436 12.2159C78.0316 12.5039 78.3195 12.6959 78.7035 12.8879C79.0875 13.0799 79.5675 13.1759 79.9515 13.1759C80.4315 13.1759 80.8155 13.0799 81.1995 12.8879C81.5835 12.6959 81.8715 12.5039 82.1595 12.2159C82.4475 11.8319 82.6395 11.4479 82.7355 11.0639C82.9275 10.4879 83.0235 10.0079 83.0235 9.43194Z" fill="black"/>
<path d="M89.125 14.5059H94.0762V16H87.3477V3.16797H89.125V14.5059ZM105.922 16H104.545C104.389 16 104.262 15.9609 104.164 15.8828C104.073 15.8047 104.001 15.707 103.949 15.5898L102.855 12.5039H97.5625L96.4785 15.5801C96.4395 15.6908 96.3646 15.7884 96.2539 15.873C96.1497 15.9577 96.0228 16 95.873 16H94.4961L99.3105 3.16797H101.117L105.922 16ZM98.0117 11.2344H102.406L100.59 6.06836C100.525 5.91211 100.46 5.72982 100.395 5.52148C100.329 5.31315 100.268 5.08854 100.209 4.84766C100.144 5.09505 100.079 5.32292 100.014 5.53125C99.9486 5.73958 99.8867 5.92188 99.8281 6.07812L98.0117 11.2344ZM107.406 16V3.16797H111.322C112.077 3.16797 112.725 3.24609 113.266 3.40234C113.812 3.55208 114.258 3.77344 114.604 4.06641C114.955 4.35286 115.212 4.70443 115.375 5.12109C115.538 5.53125 115.619 5.99674 115.619 6.51758C115.619 6.83008 115.57 7.13281 115.473 7.42578C115.382 7.71875 115.242 7.98893 115.053 8.23633C114.864 8.48372 114.626 8.70833 114.34 8.91016C114.053 9.11198 113.715 9.27474 113.324 9.39844C114.216 9.57422 114.887 9.90951 115.336 10.4043C115.792 10.8926 116.02 11.5371 116.02 12.3379C116.02 12.8848 115.925 13.3828 115.736 13.832C115.548 14.2812 115.271 14.6686 114.906 14.9941C114.542 15.3132 114.092 15.5605 113.559 15.7363C113.031 15.9121 112.426 16 111.742 16H107.406ZM109.184 10.1602V14.5938H111.713C112.162 14.5938 112.546 14.5384 112.865 14.4277C113.191 14.3105 113.454 14.151 113.656 13.9492C113.865 13.7474 114.014 13.5065 114.105 13.2266C114.203 12.9401 114.252 12.6309 114.252 12.2988C114.252 11.6413 114.044 11.1204 113.627 10.7363C113.217 10.3522 112.579 10.1602 111.713 10.1602H109.184ZM109.184 8.91016H111.254C111.69 8.91016 112.071 8.85807 112.396 8.75391C112.722 8.64323 112.992 8.49349 113.207 8.30469C113.422 8.11589 113.581 7.88802 113.686 7.62109C113.796 7.35417 113.852 7.05794 113.852 6.73242C113.852 5.98372 113.646 5.43685 113.236 5.0918C112.833 4.74023 112.195 4.56445 111.322 4.56445H109.184V8.91016ZM124.662 5.18945C124.564 5.37174 124.431 5.46289 124.262 5.46289C124.164 5.46289 124.047 5.41406 123.91 5.31641C123.78 5.21224 123.617 5.10156 123.422 4.98438C123.233 4.86068 123.002 4.75 122.729 4.65234C122.462 4.54818 122.139 4.49609 121.762 4.49609C121.404 4.49609 121.088 4.54818 120.814 4.65234C120.548 4.75 120.323 4.88997 120.141 5.07227C119.965 5.24805 119.831 5.45638 119.74 5.69727C119.649 5.93164 119.604 6.18555 119.604 6.45898C119.604 6.81706 119.685 7.11328 119.848 7.34766C120.017 7.58203 120.235 7.78385 120.502 7.95312C120.775 8.11589 121.085 8.25911 121.43 8.38281C121.775 8.50651 122.126 8.63346 122.484 8.76367C122.842 8.89388 123.194 9.04362 123.539 9.21289C123.884 9.37565 124.19 9.58398 124.457 9.83789C124.73 10.0853 124.949 10.3913 125.111 10.7559C125.281 11.1204 125.365 11.5664 125.365 12.0938C125.365 12.6602 125.274 13.1908 125.092 13.6855C124.91 14.1738 124.643 14.6003 124.291 14.9648C123.946 15.3294 123.52 15.6159 123.012 15.8242C122.504 16.0326 121.924 16.1367 121.273 16.1367C120.486 16.1367 119.76 15.987 119.096 15.6875C118.438 15.3815 117.878 14.9714 117.416 14.457L117.934 13.6172C117.979 13.5456 118.035 13.4902 118.1 13.4512C118.171 13.4056 118.253 13.3828 118.344 13.3828C118.467 13.3828 118.604 13.4512 118.754 13.5879C118.91 13.7181 119.102 13.8646 119.33 14.0273C119.558 14.1836 119.831 14.3301 120.15 14.4668C120.476 14.597 120.863 14.6621 121.312 14.6621C121.69 14.6621 122.025 14.6068 122.318 14.4961C122.611 14.3854 122.859 14.2292 123.061 14.0273C123.269 13.8255 123.425 13.5846 123.529 13.3047C123.64 13.0182 123.695 12.7025 123.695 12.3574C123.695 11.9733 123.611 11.6576 123.441 11.4102C123.279 11.1628 123.061 10.9577 122.787 10.7949C122.52 10.6257 122.214 10.4857 121.869 10.375C121.524 10.2578 121.173 10.1374 120.814 10.0137C120.456 9.88997 120.105 9.75 119.76 9.59375C119.415 9.43099 119.105 9.2194 118.832 8.95898C118.565 8.69857 118.347 8.3763 118.178 7.99219C118.015 7.60807 117.934 7.12956 117.934 6.55664C117.934 6.10742 118.018 5.67122 118.188 5.24805C118.357 4.81836 118.601 4.44076 118.92 4.11523C119.245 3.7832 119.643 3.51953 120.111 3.32422C120.587 3.1224 121.13 3.02148 121.742 3.02148C122.426 3.02148 123.051 3.13542 123.617 3.36328C124.19 3.59115 124.685 3.92318 125.102 4.35938L124.662 5.18945Z" fill="black"/>
</svg>
