<svg width="830" height="810" viewBox="0 0 830 810" fill="none" xmlns="http://www.w3.org/2000/svg">
<path fill-rule="evenodd" clip-rule="evenodd" d="M642.674 358.432V386.655L763.715 318.92L740.66 304.808L642.674 358.432ZM227.674 471.324L253.611 485.436L440.938 378.188L415 364.077L227.674 471.324ZM170.035 194.739L201.736 211.672L389.062 107.247L357.361 90.3136L170.035 194.739ZM118.16 166.516L144.097 180.627L331.424 73.3798L305.486 59.2683L118.16 166.516ZM66.2847 135.47L92.2222 149.582L276.667 45.1568L253.611 31.0453L66.2847 135.47ZM14.4097 107.247L40.3472 121.359L224.792 14.1115L201.736 0L14.4097 107.247ZM443.819 107.247L469.757 121.359L654.201 14.1115L631.146 0L443.819 107.247ZM495.694 135.47L521.632 149.582L706.076 45.1568L683.021 31.0453L495.694 135.47ZM547.569 166.516L573.507 180.627L760.833 73.3798L734.896 59.2683L547.569 166.516ZM599.444 194.739L631.146 211.672L818.472 107.247L786.771 90.3136L599.444 194.739ZM386.181 558.815L415 575.749L602.326 471.324L573.507 454.39L386.181 558.815ZM334.306 530.592L360.243 544.704L544.688 437.456L521.632 423.345L334.306 530.592ZM282.431 499.547L308.368 513.659L492.812 409.233L469.757 395.122L282.431 499.547ZM830 324.564V129.826L806.944 143.937V310.453L830 324.564ZM616.736 688.641V493.902L590.799 508.014V674.53L616.736 688.641ZM564.861 660.418V522.125L538.924 536.237V646.307L564.861 660.418ZM616.736 448.746V234.251L587.917 220.139V431.812L616.736 448.746ZM561.979 206.028L536.042 191.916V403.589L561.979 417.7V206.028ZM510.104 174.983L484.167 160.871V372.544L510.104 386.655V174.983ZM455.347 143.937L429.41 129.826V341.498L455.347 355.61V143.937ZM400.59 324.564V129.826L377.535 143.937V310.453L400.59 324.564ZM348.715 296.341V160.871L322.778 174.983V282.23L348.715 296.341ZM187.326 448.746V234.251L158.507 220.139V431.812L187.326 448.746ZM132.569 206.028L106.632 191.916V403.589L132.569 417.7V206.028ZM80.6944 174.983L54.7569 160.871V372.544L80.6944 386.655V174.983ZM25.9375 143.937L0 129.826V341.498L25.9375 355.61V143.937ZM242.083 508.014L216.146 493.902V705.575L242.083 719.686V508.014ZM293.958 539.059L270.903 524.948V736.62L293.958 750.732V539.059ZM348.715 567.282L322.778 553.171V764.843L348.715 778.955V567.282ZM403.472 810V598.328L374.653 584.216V795.889L403.472 810ZM778.125 296.341V160.871L752.188 174.983V282.23L778.125 296.341ZM429.41 781.777V810L602.326 714.042L579.271 699.93L429.41 781.777ZM429.41 722.509V750.732L550.451 682.997L527.396 668.885L429.41 722.509ZM213.264 420.523V448.746L389.062 349.965L363.125 335.854L213.264 420.523ZM213.264 358.432V386.655L334.306 318.92L311.25 304.808L213.264 358.432ZM642.674 420.523V448.746L818.472 349.965L792.535 335.854L642.674 420.523Z" fill="white"/>
</svg>
