<svg width="568" height="575" viewBox="0 0 568 575" fill="none" xmlns="http://www.w3.org/2000/svg">
<path d="M428.113 330.537V491.537L284.189 574.477L139.045 491.537V331.757L0 251.257V84.159L143.924 0L282.969 80.4999L422.015 0L567.158 84.159V251.257L428.113 330.537Z" fill="#1548D7"/>
<path d="M431.773 254.917V273.212L509.833 228.083L492.757 218.326L431.773 254.917ZM292.727 534.227V552.522L404.939 487.878L389.083 479.341L292.727 534.227ZM292.727 495.197V513.492L370.788 468.363L354.932 458.606L292.727 495.197ZM153.682 293.947V312.242L265.894 247.598L250.038 237.841L153.682 293.947ZM153.682 254.917V273.212L231.743 228.083L215.887 218.326L153.682 254.917ZM431.773 293.947V312.242L543.985 247.598L526.909 237.841L431.773 293.947Z" fill="#70CFC6"/>
<path d="M163.439 328.098L179.295 337.856L300.045 267.113L284.189 257.356L163.439 328.098ZM125.629 146.364L143.924 157.341L265.894 87.8181L246.379 75.6212L125.629 146.364ZM91.4773 126.848L107.333 136.606L228.083 65.8636L212.227 56.1061L91.4773 126.848ZM57.3258 107.333L74.4015 117.091L195.151 46.3485L178.076 36.5909L57.3258 107.333ZM23.1743 87.8181L40.2501 96.356L161 26.8334L143.924 17.0758L23.1743 87.8181ZM301.265 87.8181L318.341 96.356L439.09 26.8334L422.015 17.0758L301.265 87.8181ZM335.416 107.333L351.272 117.091L472.022 46.3485L456.166 36.5909L335.416 107.333ZM369.568 126.848L385.424 136.606L506.174 65.8636L490.318 56.1061L369.568 126.848ZM403.719 146.364L422.015 157.341L543.984 87.8181L524.469 75.6212L403.719 146.364ZM264.674 386.644L284.189 397.621L404.939 328.098L385.424 317.121L264.674 386.644ZM231.742 367.128L247.598 376.886L368.348 306.144L352.492 296.386L231.742 367.128ZM197.591 347.613L213.447 357.371L334.197 286.628L318.341 276.871L197.591 347.613Z" fill="#FDB396"/>
<path d="M552.52 231.742V102.454L536.664 112.212V223.204L552.52 231.742ZM414.695 473.242V342.734L397.619 352.492V463.484L414.695 473.242ZM380.543 452.507V362.25L363.468 372.007V443.969L380.543 452.507ZM413.475 312.242V173.197L395.18 162.22V302.485L413.475 312.242ZM378.104 152.462L362.248 142.704V282.969L378.104 291.507V152.462ZM343.953 132.947L328.096 123.189V263.454L343.953 271.992V132.947ZM309.801 113.432L292.725 102.454V242.719L309.801 252.477V113.432ZM274.43 231.742V102.454L258.574 112.212V223.204L274.43 231.742ZM240.278 212.227V121.97L224.422 131.727V203.689L240.278 212.227ZM135.385 312.242V173.197L118.309 162.22V302.485L135.385 312.242ZM100.013 152.462L84.1574 142.704V282.969L100.013 291.507V152.462ZM65.862 132.947L50.0059 123.189V263.454L65.862 271.992V132.947ZM31.7105 113.432L14.6348 102.454V242.719L31.7105 252.477V113.432ZM171.975 353.712L153.68 342.734V482.999L171.975 492.757V353.712ZM206.127 373.227L189.051 363.469V503.734L206.127 512.272V373.227ZM239.059 392.742L223.203 382.984V523.249L239.059 533.007V392.742ZM275.65 552.522V413.477L257.354 402.5V542.765L275.65 552.522ZM518.369 212.227V121.97L502.513 131.727V203.689L518.369 212.227Z" fill="#FE79BB"/>
</svg>
