<svg width="32" height="32" viewBox="0 0 32 32" fill="none" xmlns="http://www.w3.org/2000/svg">
<rect width="32" height="32" fill="black"/>
<path d="M22.9243 17.3701V24.3583L16.5498 28L10.1753 24.3583V17.3701L4 13.9252V6.64173L10.3745 3L16.4502 6.44488L22.6255 3L29 6.64173V13.9252L22.9243 17.3701Z" fill="black"/>
<path fill-rule="evenodd" clip-rule="evenodd" d="M23.024 14.0231V14.9089L26.51 12.9404L25.7132 12.4483L23.024 14.0231ZM20.7331 22.6845V18.7475L20.0359 19.1412V22.2908L20.7331 22.6845ZM16.1514 27.0152V20.9129L15.3546 20.5192V26.6215L16.1514 27.0152ZM22.2271 16.5822V10.4798L21.4303 9.98769V16.0901L22.2271 16.5822ZM20.6335 9.59399L19.9363 9.20029V15.3026L20.6335 15.6964V9.59399ZM19.1395 8.70816L18.4423 8.31446V14.4168L19.1395 14.8105V8.70816ZM17.6455 7.92076L16.8487 7.42863V13.531L17.6455 13.9247V7.92076ZM9.97614 16.5822V10.4798L9.17933 9.98769V16.0901L9.97614 16.5822ZM8.38252 9.59399L7.68531 9.20029V15.3026L8.38252 15.6964V9.59399ZM6.88849 8.70816L6.19128 8.31446V14.4168L6.88849 14.8105V8.70816ZM5.39447 7.92076L4.59766 7.42863V13.531L5.39447 13.9247V7.92076ZM11.5698 18.3538L10.773 17.8617V23.9641L11.5698 24.4562V18.3538ZM13.0638 19.2397L12.3666 18.7475V24.8499L13.0638 25.342V19.2397ZM14.5578 20.0271L13.8606 19.6334V25.7357L14.5578 26.1294V20.0271ZM16.1514 13.0389V7.42863L15.3546 7.82233V12.6452L16.1514 13.0389ZM14.5578 12.2515V8.31446L13.8606 8.70816V11.8578L14.5578 12.2515ZM28.4024 13.0389V7.42863L27.6056 7.82233V12.6452L28.4024 13.0389ZM26.9084 12.2515V8.31446L26.1116 8.70816V11.8578L26.9084 12.2515ZM22.2271 23.5704V17.8617L21.5299 18.3538V23.1767L22.2271 23.5704ZM11.1714 17.2712L11.9682 17.6649L17.2471 14.6137L16.5498 14.22L11.1714 17.2712ZM9.57774 9.29871L10.3745 9.79084L15.753 6.73966L14.8566 6.24753L9.57774 9.29871ZM8.08371 8.51131L8.78092 8.90501L14.0598 5.85383L13.3626 5.46013L8.08371 8.51131ZM6.58969 7.62548L7.2869 8.01919L12.5658 4.968L11.8686 4.5743L6.58969 7.62548ZM4.99606 6.73966L5.79288 7.13336L11.0718 4.08218L10.3745 3.68848L4.99606 6.73966ZM17.2471 6.73966L18.0439 7.13336L23.3228 4.08218L22.6255 3.68848L17.2471 6.73966ZM18.8407 7.62548L19.5379 8.01919L24.8168 4.968L24.1196 4.5743L18.8407 7.62548ZM20.3347 8.51131L21.0319 8.90501L26.3108 5.85383L25.6136 5.46013L20.3347 8.51131ZM21.8287 9.29871L22.6255 9.79084L28.004 6.73966L27.1076 6.24753L21.8287 9.29871ZM15.6534 19.8302L16.5498 20.3223L21.8287 17.2712L21.0319 16.779L15.6534 19.8302ZM14.1594 18.9444L14.9562 19.3381L20.2351 16.2869L19.5379 15.8932L14.1594 18.9444ZM12.6654 18.0586L13.4622 18.5507L18.7411 15.4011L18.0439 15.0074L12.6654 18.0586ZM16.9483 26.2278V27.0152L21.8287 24.2593L21.1315 23.8656L16.9483 26.2278ZM16.9483 24.5546V25.342L20.3347 23.3735L19.6375 22.9798L16.9483 24.5546ZM10.773 15.7948V16.5822L15.753 13.7278L14.9562 13.3341L10.773 15.7948ZM10.773 14.0231V14.9089L14.259 12.9404L13.4622 12.4483L10.773 14.0231ZM23.024 15.7948V16.5822L28.004 13.7278L27.2072 13.3341L23.024 15.7948Z" fill="white"/>
</svg>
